# This file uses meters as units for non-parametric coordinates.

mtllib smoothgubbe.mtl
g default
v 406.792356 302.888219 43.812740
v 494.417837 302.888219 43.812740
v 406.792356 302.888219 -43.812740
v 494.417837 302.888219 -43.812740
v 361.970331 2.888219 88.634750
v 356.166834 5.948430 94.438248
v 354.798426 25.835500 95.806664
v 546.411737 25.835500 95.806664
v 545.043329 5.948430 94.438255
v 539.239801 2.888219 88.634758
v 354.798426 25.835500 -95.806664
v 356.166834 5.948430 -94.438248
v 361.970331 2.888219 -88.634750
v 539.239801 2.888219 -88.634758
v 545.043329 5.948430 -94.438255
v 546.411737 25.835500 -95.806664
v 406.049173 185.124288 44.555927
v 409.341867 174.389915 41.263229
v 407.508196 163.502947 43.096901
v 495.161020 185.124288 44.555927
v 491.868326 174.389915 41.263229
v 493.701998 163.502946 43.096901
v 406.049173 185.124288 -44.555927
v 409.341867 174.389915 -41.263229
v 407.508196 163.502947 -43.096901
v 495.161020 185.124288 -44.555927
v 491.868326 174.389915 -41.263229
v 493.701998 163.502947 -43.096901
v 524.709185 267.910291 74.104080
v 521.238367 200.680043 70.633293
v 376.501009 267.910291 74.104080
v 379.971826 200.680043 70.633293
v 376.501009 267.910291 -74.104080
v 379.971826 200.680043 -70.633293
v 524.709185 267.910291 -74.104080
v 521.238367 200.680043 -70.633293
v 371.300188 236.559568 79.304924
v 529.910005 236.559568 79.304924
v 529.910005 236.559568 -79.304924
v 371.300188 236.559568 -79.304924
v 523.611391 77.741910 73.006302
v 377.598787 77.741910 73.006302
v 377.598787 77.741910 -73.006302
v 523.611391 77.741910 -73.006302
vt 0.375000 0.500000
vt 0.387499 0.987501
vt 0.612501 0.762499
vt 0.625000 0.740803
vt 0.387499 0.762499
vt 0.125000 0.009197
vt 0.612501 0.987501
vt 0.375000 0.000000
vt 0.375000 1.000000
vt 0.625000 1.000000
vt 0.625000 0.000000
vt 0.375000 0.750000
vt 0.125000 0.000000
vt 0.875000 0.000000
vt 0.625000 0.750000
vt 0.375000 0.145812
vt 0.625000 0.009197
vt 0.375000 0.740803
vt 0.625000 0.604188
vt 0.625000 0.145812
vt 0.875000 0.009197
vt 0.375000 0.009197
vt 0.125000 0.145812
vt 0.875000 0.145812
vt 0.125000 0.180221
vt 0.375000 0.604188
vt 0.625000 0.569779
vt 0.375000 0.166667
vt 0.625000 0.166667
vt 0.375000 0.583333
vt 0.125000 0.166667
vt 0.625000 0.583333
vt 0.875000 0.166667
vt 0.875000 0.196037
vt 0.125000 0.227274
vt 0.375000 0.553963
vt 0.625000 0.522726
vt 0.625000 0.227274
vt 0.375000 0.250000
vt 0.375000 0.227274
vt 0.125000 0.250000
vt 0.625000 0.500000
vt 0.375000 0.522726
vt 0.875000 0.227274
vt 0.875000 0.250000
vt 0.625000 0.250000
vt 0.625000 0.180221
vt 0.375000 0.196037
vt 0.625000 0.553963
vt 0.375000 0.569779
vt 0.875000 0.180221
vt 0.625000 0.196037
vt 0.375000 0.180221
vt 0.125000 0.196037
vt 0.375000 0.211136
vt 0.625000 0.211136
vt 0.875000 0.211136
vt 0.625000 0.538864
vt 0.125000 0.211136
vt 0.375000 0.538864
vt 0.625000 0.068291
vt 0.375000 0.068291
vt 0.375000 0.681708
vt 0.125000 0.068292
vt 0.625000 0.681708
vt 0.875000 0.068292
vn 0.000000 1.000000 0.000000
vn 0.000000 1.000000 0.000000
vn 0.000000 1.000000 0.000000
vn 0.000000 1.000000 0.000000
vn -0.000000 0.251514 0.967854
vn -0.000000 -0.068647 0.997641
vn -0.000000 -0.068647 0.997641
vn -0.000000 0.251514 0.967854
vn 0.000000 -0.884558 0.466430
vn -0.023693 -0.999439 0.023692
vn 0.023693 -0.999439 0.023693
vn 0.000000 -0.884558 0.466430
vn -0.023693 -0.999439 -0.023692
vn 0.000000 -0.884558 -0.466430
vn 0.000000 -0.884558 -0.466430
vn 0.023693 -0.999439 -0.023693
vn -0.000000 -0.068647 -0.997641
vn -0.000000 0.251514 -0.967854
vn -0.000000 0.251514 -0.967854
vn -0.000000 -0.068647 -0.997641
vn -0.466432 -0.884557 0.000000
vn -0.466432 -0.884557 0.000000
vn -0.997641 -0.068646 0.000000
vn -0.967854 0.251514 0.000000
vn -0.967854 0.251514 0.000000
vn -0.997641 -0.068646 0.000000
vn 0.967854 0.251514 0.000000
vn 0.997641 -0.068647 0.000000
vn 0.997641 -0.068647 0.000000
vn 0.967854 0.251514 0.000000
vn 0.466430 -0.884558 0.000000
vn 0.466430 -0.884558 0.000000
vn 0.000000 0.372275 0.928123
vn 0.000000 0.372275 0.928123
vn 0.000000 0.372275 -0.928123
vn 0.000000 0.372275 -0.928123
vn 0.928123 0.372274 0.000000
vn 0.928123 0.372274 0.000000
vn -0.928123 0.372275 0.000000
vn -0.928123 0.372275 0.000000
vn 0.000000 -0.807432 0.589960
vn 0.000000 -0.077269 0.997010
vn 0.000000 -0.077269 0.997010
vn 0.000000 -0.807432 0.589960
vn 0.000000 0.319495 0.947588
vn 0.000000 0.319495 0.947588
vn 0.589960 -0.807432 0.000000
vn 0.997010 -0.077268 0.000000
vn 0.997010 -0.077268 0.000000
vn 0.589960 -0.807432 0.000000
vn 0.947588 0.319494 0.000000
vn 0.947588 0.319494 0.000000
vn -0.947588 0.319495 0.000000
vn -0.997010 -0.077268 0.000000
vn -0.997010 -0.077268 0.000000
vn -0.947588 0.319495 0.000000
vn -0.589960 -0.807432 0.000000
vn -0.589960 -0.807432 0.000000
vn 0.000000 0.319495 -0.947588
vn 0.000000 -0.077269 -0.997010
vn 0.000000 -0.077269 -0.997010
vn 0.000000 0.319495 -0.947588
vn 0.000000 -0.807432 -0.589960
vn 0.000000 -0.807432 -0.589960
vn 0.929664 0.368409 0.000000
vn 0.999023 -0.044188 0.000000
vn 0.999023 -0.044188 0.000000
vn 0.929664 0.368409 0.000000
vn 0.000000 -0.044188 0.999023
vn 0.000000 0.368409 0.929664
vn 0.000000 0.368409 0.929664
vn 0.000000 -0.044188 0.999023
vn -0.999023 -0.044188 0.000000
vn -0.999023 -0.044188 0.000000
vn -0.929664 0.368409 0.000000
vn -0.929664 0.368409 0.000000
vn 0.000000 -0.044188 -0.999023
vn 0.000000 0.368409 -0.929664
vn 0.000000 0.368409 -0.929664
vn 0.000000 -0.044188 -0.999023
vn 0.000000 0.654648 0.755934
vn 0.000000 0.654648 0.755934
vn -0.755934 0.654648 0.000000
vn -0.755934 0.654648 0.000000
vn 0.000000 0.654648 -0.755934
vn 0.000000 0.654648 -0.755934
vn 0.755934 0.654648 0.000000
vn 0.755934 0.654648 0.000000
vn 0.000000 -0.401779 0.915737
vn 0.000000 -0.401779 0.915737
vn 0.000000 -0.401779 -0.915737
vn 0.000000 -0.401779 -0.915737
vn 0.915737 -0.401779 0.000000
vn 0.915737 -0.401779 0.000000
vn -0.915737 -0.401779 0.000000
vn -0.915737 -0.401779 0.000000
s off
g pCube1
usemtl blinn1SG
f 1/39/1 2/46/2 4/42/3 3/1/4
s 1
f 7/22/5 6/8/6 9/11/7 8/17/8
s 2
f 6/9/9 5/2/10 10/7/11 9/10/12
f 13/5/13 12/12/14 15/15/15 14/3/16
s 3
f 12/12/17 11/18/18 16/4/19 15/15/20
s 2
f 13/5/13 14/3/16 10/7/11 5/2/10
f 5/2/10 6/9/21 12/12/22 13/5/13
s 4
f 6/8/23 7/22/24 11/6/25 12/13/26
s 5
f 8/17/27 9/11/28 15/14/29 16/21/30
s 2
f 9/10/31 10/7/11 14/3/16 15/15/32
s 1
f 41/61/33 42/62/34 7/22/5 8/17/8
s 3
f 16/4/19 11/18/18 43/63/35 44/65/36
s 5
f 44/66/37 41/61/38 8/17/27 16/21/30
s 4
f 7/22/24 42/62/39 43/64/40 11/6/25
s 1
f 17/53/41 18/28/42 21/29/43 20/47/44
f 18/28/42 19/16/45 22/20/46 21/29/43
s 5
f 20/47/47 21/29/48 27/33/49 26/51/50
f 21/29/48 22/20/51 28/24/52 27/33/49
s 4
f 19/16/53 18/28/54 24/31/55 25/23/56
f 18/28/54 17/53/57 23/25/58 24/31/55
s 3
f 25/26/59 24/30/60 27/32/61 28/19/62
f 24/30/60 23/50/63 26/27/64 27/32/61
s 5
f 29/38/65 38/56/66 39/57/67 35/44/68
s 1
f 38/56/69 29/38/70 31/40/71 37/55/72
s 4
f 40/59/73 37/55/74 31/40/75 33/35/76
s 3
f 40/60/77 33/43/78 35/37/79 39/58/80
s 1
f 31/40/71 29/38/70 2/46/81 1/39/82
s 4
f 33/35/76 31/40/75 1/39/83 3/41/84
s 3
f 3/1/85 4/42/86 35/37/79 33/43/78
s 5
f 29/38/65 35/44/68 4/45/87 2/46/88
s 1
f 17/53/41 20/47/44 30/52/89 32/48/90
s 3
f 34/36/91 36/49/92 26/27/64 23/50/63
s 5
f 20/47/47 26/51/50 36/34/93 30/52/94
s 4
f 23/25/58 17/53/57 32/48/95 34/54/96
s 1
f 30/52/89 38/56/69 37/55/72 32/48/90
s 5
f 39/57/67 38/56/66 30/52/94 36/34/93
s 3
f 34/36/91 40/60/77 39/58/80 36/49/92
s 4
f 32/48/95 37/55/74 40/59/73 34/54/96
s 1
f 22/20/46 19/16/45 42/62/34 41/61/33
s 4
f 43/64/40 42/62/39 19/16/53 25/23/56
s 3
f 44/65/36 43/63/35 25/26/59 28/19/62
s 5
f 22/20/51 41/61/38 44/66/37 28/24/52
